Coordinates
version=1
nRows=26
nColumns=24
inDegrees=yes

Units are S.I. units (second, meters, Newtons, ...)
Angles are in degrees.

endheader
time	pelvis_tilt	pelvis_list	pelvis_rotation	pelvis_tx	pelvis_ty	pelvis_tz	hip_flexion_r	hip_adduction_r	hip_rotation_r	knee_angle_r	ankle_angle_r	subtalar_angle_r	mtp_angle_r	hip_flexion_l	hip_adduction_l	hip_rotation_l	knee_angle_l	ankle_angle_l	subtalar_angle_l	mtp_angle_l	lumbar_extension	lumbar_bending	lumbar_rotation
      2.84000000	     -2.56051161	      4.86060441	      3.08964127	     -1.47457089	      0.91248574	      0.19820022	     32.53486518	     -2.16654366	     -6.06359170	    -15.78181377	     10.25106529	     -5.70200459	      0.00000000	    -11.92487704	     10.88822182	      4.22813346	    -15.29790586	     24.25976254	     -5.54383660	      0.00000000	    -11.02616131	     -4.20351483	    -14.25924773
      2.84500000	     -2.54290618	      4.63150072	      3.10599644	     -1.46671276	      0.91170404	      0.19846181	     32.51901000	     -1.86753797	     -5.92201694	    -16.53842200	      9.36450913	     -6.44572323	      0.00000000	    -11.70491674	     10.48328892	      3.17436317	    -16.68509817	     24.59280933	     -4.15962871	      0.00000000	    -10.98049761	     -3.87592278	    -14.26266015
      2.85000000	     -2.58108612	      4.37649480	      3.02734440	     -1.45888924	      0.91088477	      0.19897840	     32.56987387	     -1.46814791	     -5.55533106	    -17.27809858	      8.26926606	     -7.33440833	      0.00000000	    -11.36198030	     10.02947472	      1.97877199	    -18.16550365	     24.88550897	     -2.67156855	      0.00000000	    -10.86812818	     -3.55271805	    -14.14847751
      2.85500000	     -2.63809778	      4.06616434	      2.95662820	     -1.45109641	      0.91015675	      0.19948862	     32.63150697	     -1.02145783	     -5.19435226	    -17.99130847	      7.08001239	     -8.19240406	      0.00000000	    -10.93964608	      9.49241994	      0.81492782	    -19.74386242	     25.05011905	     -1.24352949	      0.00000000	    -10.73753066	     -3.16357248	    -14.02549536
      2.86000000	     -2.71909102	      3.69762044	      2.88352367	     -1.44331863	      0.90950155	      0.20004265	     32.71603270	     -0.51370514	     -4.82071673	    -18.69179410	      5.83758482	     -9.03421391	      0.00000000	    -10.43150928	      8.86690308	     -0.31640332	    -21.42228617	     25.09228670	      0.13026191	      0.00000000	    -10.57679231	     -2.70835763	    -13.89721265
      2.86500000	     -2.81178251	      3.28727776	      2.78692407	     -1.43557448	      0.90891711	      0.20066200	     32.81915317	      0.05668291	     -4.38487872	    -19.39435102	      4.57437383	     -9.89487056	      0.00000000	     -9.85785789	      8.17505187	     -1.40512689	    -23.18499111	     24.99132480	      1.44079914	      0.00000000	    -10.40633922	     -2.21208782	    -13.72442775
      2.87000000	     -2.91571652	      2.83830434	      2.68612830	     -1.42784216	      0.90840017	      0.20131393	     32.93694410	      0.67773593	     -3.90756863	    -20.10565251	      3.34148674	    -10.77911347	      0.00000000	     -9.22162534	      7.41897979	     -2.42362668	    -25.03125485	     24.73566855	      2.67084490	      0.00000000	    -10.22376577	     -1.67344242	    -13.54019263
      2.87500000	     -3.02565123	      2.35942428	      2.58617420	     -1.42011606	      0.90794106	      0.20197958	     33.06204248	      1.33941891	     -3.39857941	    -20.82742891	      2.18252089	    -11.70241076	      0.00000000	     -8.53185770	      6.61057532	     -3.35209861	    -26.95392325	     24.31290673	      3.81135155	      0.00000000	    -10.03344835	     -1.10051608	    -13.34406166
      2.88000000	     -3.13338954	      1.85704308	      2.49443720	     -1.41238484	      0.90752960	      0.20264324	     33.18657632	      2.02985426	     -2.88843564	    -21.56926245	      1.15855092	    -12.64274631	      0.00000000	     -7.80022609	      5.75920826	     -4.17562766	    -28.94580975	     23.72132366	      4.85105391	      0.00000000	     -9.84370117	     -0.50205214	    -13.15482516
      2.88500000	     -3.23076911	      1.35052737	      2.40491822	     -1.40466788	      0.90716031	      0.20331097	     33.30076860	      2.73343870	     -2.38427012	    -22.32693763	      0.29775383	    -13.60623903	      0.00000000	     -7.03840666	      4.88964323	     -4.89537741	    -30.99362800	     22.95288780	      5.79047215	      0.00000000	     -9.66883211	      0.09982738	    -12.96199975
      2.89000000	     -3.31485309	      0.83966711	      2.32073638	     -1.39694620	      0.90682962	      0.20397949	     33.39510084	      3.44521097	     -1.90716682	    -23.09508044	     -0.35395024	    -14.53842901	      0.00000000	     -6.25296864	      4.00410145	     -5.51090312	    -33.08576900	     22.00997077	      6.62645310	      0.00000000	     -9.50642435	      0.70878745	    -12.79250715
      2.89500000	     -3.38076964	      0.34087104	      2.22927537	     -1.38925505	      0.90654174	      0.20464201	     33.46153008	      4.15497700	     -1.44453943	    -23.86546111	     -0.79993225	    -15.44133043	      0.00000000	     -5.45226763	      3.13111069	     -6.02332396	    -35.20241002	     20.88162693	      7.33757259	      0.00000000	     -9.37400199	      1.30053682	    -12.62604394
      2.90000000	     -3.41800923	     -0.17244013	      2.14202232	     -1.38153745	      0.90629877	      0.20526114	     33.49079019	      4.86023639	     -1.10941812	    -24.65061481	     -0.93509298	    -16.12788881	      0.00000000	     -4.65367865	      2.24268246	     -6.44145285	    -37.33255821	     19.60763950	      7.93087414	      0.00000000	     -9.26636006	      1.91102649	    -12.44705705
      2.90500000	     -3.46874652	     -0.63291061	      2.03007807	     -1.37387096	      0.90609603	      0.20600562	     33.49072109	      5.56758679	     -0.63733603	    -25.36856791	     -1.03972403	    -17.03391144	      0.00000000	     -3.81383536	      1.41837812	     -6.78013990	    -39.44280871	     18.10586984	      8.30539179	      0.00000000	     -9.15232632	      2.44157806	    -12.29979308
      2.91000000	     -3.48319209	     -1.11631992	      1.89827274	     -1.36622440	      0.90596662	      0.20664808	     33.44298683	      6.27182433	     -0.31200978	    -26.08888770	     -0.85837284	    -17.62188825	      0.00000000	     -2.99014131	      0.59751933	     -7.02957895	    -41.53339021	     16.49188572	      8.49140255	      0.00000000	     -9.08710593	      3.01626897	    -12.08805446
      2.91500000	     -3.51545245	     -1.55707265	      1.75154743	     -1.35862397	      0.90586852	      0.20739051	     33.37349655	      6.95923593	      0.05107724	    -26.74802451	     -0.60457564	    -18.27562854	      0.00000000	     -2.11990823	     -0.17660817	     -7.24534321	    -43.59339843	     14.73194421	      8.48503512	      0.00000000	     -9.00476170	      3.52145831	    -11.91855474
      2.92000000	     -3.53513843	     -1.99151875	      1.57929789	     -1.35109425	      0.90585091	      0.20812266	     33.26420865	      7.63519388	      0.35930575	    -27.36824064	     -0.21844723	    -18.76195627	      0.00000000	     -1.24051406	     -0.91610146	     -7.40038119	    -45.60904662	     12.87973388	      8.23184369	      0.00000000	     -8.95273878	      4.01911073	    -11.69991954
      2.92500000	     -3.56063470	     -2.40946428	      1.38344971	     -1.34364577	      0.90589369	      0.20888089	     33.12626545	      8.29514749	      0.63828221	    -27.93026132	      0.24305306	    -19.15577511	      0.00000000	     -0.32993927	     -1.61960885	     -7.52592439	    -47.57969750	     10.96625219	      7.73590364	      0.00000000	     -8.90978517	      4.49277196	    -11.46297491
      2.93000000	     -3.50274539	     -2.81945370	      1.18091305	     -1.33620786	      0.90615729	      0.20963562	     32.84833158	      8.93443188	      0.86016906	    -28.41599393	      0.82816309	    -19.38574562	      0.00000000	      0.49610393	     -2.29335775	     -7.61663247	    -49.46440559	      9.00097507	      6.95915570	      0.00000000	     -8.97056934	      4.95066540	    -11.21835209
      2.93500000	     -3.60619559	     -3.21055146	      0.92699757	     -1.32897604	      0.90623869	      0.21047674	     32.72743914	      9.56669712	      1.08114040	    -28.85105899	      1.30304084	    -19.65058267	      0.00000000	      1.54516070	     -2.93587040	     -7.71688346	    -51.35240346	      7.08498338	      5.98279042	      0.00000000	     -8.87587734	      5.37930887	    -10.90232636
      2.94000000	     -3.59212006	     -3.62141885	      0.68466935	     -1.32166690	      0.90658083	      0.21133012	     32.39559039	     10.20749606	      1.28200335	    -29.15760483	      1.92774099	    -19.78928334	      0.00000000	      2.45927609	     -3.59608148	     -7.81015466	    -53.14226740	      5.22894934	      4.75349450	      0.00000000	     -8.90883051	      5.82587705	    -10.63581428
      2.94500000	     -3.75703809	     -3.94252050	      0.40666810	     -1.31460234	      0.90672885	      0.21219963	     32.25448336	     10.75747889	      1.50710850	    -29.45538914	      2.50500566	    -19.85654566	      0.00000000	      3.60840303	     -4.12657278	     -7.86284358	    -54.90576761	      3.45806511	      3.28260462	      0.00000000	     -8.76663207	      6.16285864	    -10.32328676
      2.95000000	     -3.80140246	     -4.30677286	      0.14522048	     -1.30750881	      0.90713910	      0.21307797	     31.92057066	     11.33106931	      1.66087852	    -29.63866501	      3.09415918	    -19.88152839	      0.00000000	      4.62455777	     -4.70405134	     -7.90374949	    -56.58604025	      1.85706085	      1.64367473	      0.00000000	     -8.76847026	      6.54270160	     -9.99972532
      2.95500000	     -3.82580831	     -4.67707730	     -0.12883515	     -1.30047147	      0.90765124	      0.21400588	     31.52342911	     11.90731305	      1.80030095	    -29.74477291	      3.64534753	    -19.87201170	      0.00000000	      5.62740881	     -5.29235567	     -7.95342276	    -58.20689027	      0.45878936	     -0.10532793	      0.00000000	     -8.80786455	      6.92354489	     -9.68974373
      2.96000000	     -3.94970613	     -4.94846995	     -0.38401404	     -1.29347134	      0.90810245	      0.21485199	     31.19332688	     12.36837993	      1.98761484	    -29.80331446	      4.27012121	    -19.80936012	      0.00000000	      6.74429725	     -5.72965825	     -7.91898008	    -59.74178148	     -0.75571938	     -2.02788411	      0.00000000	     -8.71848304	      7.18944315	     -9.37678346
      2.96500000	     -4.00571683	     -5.24522330	     -0.63680949	     -1.28655334	      0.90870990	      0.21572667	     30.76531663	     12.84227630	      2.12392630	    -29.80108157	      4.81641874	    -19.72868945	      0.00000000	      7.79852074	     -6.20318224	     -7.88853701	    -61.22217611	     -1.69393169	     -3.95877338	      0.00000000	     -8.73438128	      7.48270514	     -9.06847866
